# xmcd
#
# Track frame offsets:
#	150
#	13148
#	23131
#	34164
#	40847
#	50132
#	60640
#	70885
#	82915
#	92463
#	100668
#	111371
#
# Disc length: 1636 seconds
#
# Revision: 1
# Processed by: cddbd v1.5.2PL0 Copyright (c) Steve Scherf et al.
# Submitted via: audiograbber 1.83.01
#
DISCID=9506620c
DTITLE=Chubby Wise - Grassy Fiddle
DYEAR=1976
DGENRE=Bluegrass
TTITLE0=John Henry
TTITLE1=I Wonder Where You Are Tonight
TTITLE2=Muleskinner Blues
TTITLE3=Fire On The Mountain
TTITLE4=Blue Moon Of Kentucky
TTITLE5=Oh My Darling Nellie Gray
TTITLE6=Footprints In The Snow
TTITLE7=Put My Little Shoes Away
TTITLE8=Cumberland Gap
TTITLE9=Birmingham Jail
TTITLE10=Traveling Down That Lonesome Road
TTITLE11=Kentucky Waltz
EXTD=I made this CD for one of my LP's 
EXTT0=
EXTT1=
EXTT2=
EXTT3=
EXTT4=
EXTT5=
EXTT6=
EXTT7=
EXTT8=
EXTT9=
EXTT10=
EXTT11=
PLAYORDER=
